# xmcd CD database file
#
# Track frame offsets:
#	150
#	9435
#	22687
#	31012
#	40365
#	50910
#	60352
#	67382
#	81047
#	91557
#	102685
#	113647
#	120857
#	132810
#	143852
#
# Disc length: 2079 seconds
#
# Revision: 7
# Processed by: cddbd v1.5.2PL0 Copyright (c) Steve Scherf et al.
# Submitted via: CDex 1.70beta2
#
DISCID=b9081d0f
DTITLE=Frank Sinatra - Sinatra's Swingin' Session! and More
DYEAR=1987
DGENRE=Jazz
TTITLE0=When You're Smiling (The Whole World Smiles With You)
TTITLE1=Blue Moon
TTITLE2=S'posin
TTITLE3=It All Depends On You
TTITLE4=It's Only A Paper Moon
TTITLE5=My Blue Heaven
TTITLE6=Should I
TTITLE7=September In The Rain
TTITLE8=Always
TTITLE9=I Can't Believe That You're In Love With Me
TTITLE10=I Concentrate On You
TTITLE11=You Do Something To Me
TTITLE12=Sentimental Baby
TTITLE13=Hidden Persuasion
TTITLE14=Ol' Mac Donald
EXTD=YEAR: 1987
EXTT0=
EXTT1=
EXTT2=
EXTT3=
EXTT4=
EXTT5=
EXTT6=
EXTT7=
EXTT8=
EXTT9=
EXTT10=
EXTT11=
EXTT12=
EXTT13=
EXTT14=
PLAYORDER=
